<svg id="Layer_1" data-name="Layer 1" xmlns="http://www.w3.org/2000/svg" viewBox="0 0 114.39 114.39"><defs><style>.cls-1{fill:none;stroke:#fff;stroke-miterlimit:10;}.cls-2{fill:#fcce00;}</style></defs><rect class="cls-1" x="0.5" y="0.5" width="113.39" height="113.39"/><path class="cls-2" d="M73.55,92.33H38a7.78,7.78,0,0,1-7.78-7.78v-8H73.55Z" transform="translate(0.19 0.19)"/><rect class="cls-2" x="58.19" y="58.46" width="24.82" height="15.78"/><rect class="cls-2" x="58.19" y="40.18" width="34.29" height="15.78"/><path class="cls-2" d="M47.51,21.71h0a7.77,7.77,0,0,1,7.77,7.78v.22a7.78,7.78,0,1,1-15.55,0v-.22a7.78,7.78,0,0,1,7.78-7.78" transform="translate(0.19 0.19)"/><path class="cls-2" d="M37.25,40h11a7,7,0,0,1,7,7v8.79h-25V47a7,7,0,0,1,7-7" transform="translate(0.19 0.19)"/><path class="cls-2" d="M21,58.27H55.28V74.05H28.71A7.71,7.71,0,0,1,21,66.33Z" transform="translate(0.19 0.19)"/></svg>