<svg id="Layer_1" data-name="Layer 1" xmlns="http://www.w3.org/2000/svg" viewBox="0 0 114.39 114.39"><defs><style>.cls-1{fill:none;stroke:#fff;stroke-miterlimit:10;}.cls-2{fill:#0063ae;}</style></defs><rect class="cls-1" x="0.5" y="0.5" width="113.39" height="113.39"/><path class="cls-2" d="M46.18,82.81H38.51a7.66,7.66,0,0,1-7.66-7.67V67.26H46.18Z" transform="translate(0.19 0.19)"/><rect class="cls-2" x="31.04" y="49.44" width="24.45" height="15.55"/><rect class="cls-2" x="31.04" y="31.42" width="33.79" height="15.55"/><path class="cls-2" d="M74.76,31.23h0a7.66,7.66,0,0,1,7.67,7.67v.22a7.67,7.67,0,0,1-15.33,0V38.9a7.66,7.66,0,0,1,7.66-7.67" transform="translate(0.19 0.19)"/><path class="cls-2" d="M64.66,49.24H75.53a6.9,6.9,0,0,1,6.9,6.9v8.65H57.77V56.14a6.89,6.89,0,0,1,6.89-6.9" transform="translate(0.19 0.19)"/><rect class="cls-2" x="48.83" y="67.45" width="33.79" height="15.55"/></svg>