<svg xmlns="http://www.w3.org/2000/svg" viewBox="0 0 166.58 63.34"><defs><style>.cls-1{fill:#0063ae;}.cls-2{fill:#a6a6a6;}</style></defs><title>Asset 25</title><g id="Layer_2" data-name="Layer 2"><g id="Layer_1-2" data-name="Layer 1"><path class="cls-1" d="M122.06,63.34h-9.41a9.41,9.41,0,0,1-9.41-9.41V44.24h18.82Z"/><rect class="cls-1" x="103.24" y="22.12" width="30.03" height="19.1"/><rect class="cls-1" x="103.24" width="41.49" height="19.1"/><path class="cls-1" d="M157.17,0h0a9.41,9.41,0,0,1,9.41,9.41v.27a9.41,9.41,0,1,1-18.82,0V9.41A9.41,9.41,0,0,1,157.17,0"/><path class="cls-1" d="M144.76,22.12h13.35a8.47,8.47,0,0,1,8.47,8.47V41.22H136.3V30.59a8.47,8.47,0,0,1,8.46-8.47"/><rect class="cls-1" x="125.09" y="44.24" width="41.49" height="19.1"/><rect class="cls-2" x="10.12" y="35.68" width="2.01" height="1.63"/><path class="cls-2" d="M24.66,32h10a4.24,4.24,0,0,0,3.07-1.11,4,4,0,0,0,1.16-3V12.51H37.71V27.94a2.56,2.56,0,0,1-.86,2,3.24,3.24,0,0,1-2.24.77H24.7a4.09,4.09,0,0,1-1.05-.14,2.84,2.84,0,0,1-.94-.46,2.2,2.2,0,0,1-.69-.84,3,3,0,0,1-.27-1.35V23.11H20.56v4.83a2.69,2.69,0,0,1-.8,2,3.2,3.2,0,0,1-2.31.77H6.14a3.76,3.76,0,0,1-3-1.07,4.13,4.13,0,0,1-.91-2.79V23.11H1.06v4A6.22,6.22,0,0,0,1.33,29a3.92,3.92,0,0,0,.84,1.54,4.09,4.09,0,0,0,1.51,1A5.64,5.64,0,0,0,5.89,32H17.45a4.73,4.73,0,0,0,2-.44,3.57,3.57,0,0,0,1.62-1.66,3.15,3.15,0,0,0,1.54,1.66A5,5,0,0,0,24.66,32Z"/><rect class="cls-2" x="51.22" y="35.37" width="4.14" height="3.79"/><path class="cls-2" d="M89.51,26.43V24.71a9.28,9.28,0,0,0-.41-2.95A4.9,4.9,0,0,0,88,19.85a4.16,4.16,0,0,0-1.74-1A7.87,7.87,0,0,0,84,18.5a5.12,5.12,0,0,0-3.88,1.66,4.85,4.85,0,0,0-1,1.62,5,5,0,0,0-.33,1.74,8.37,8.37,0,0,0,.39,2.76,3.74,3.74,0,0,0,1.68,1.88c-.3-.11-.55-.19-.75-.25a4.74,4.74,0,0,0-.65-.16,5.11,5.11,0,0,0-.72-.08H67.25a2.46,2.46,0,0,1-1.49-.43,1.52,1.52,0,0,1-.58-1.33V22.64h-4V25.9a1.86,1.86,0,0,1-.4,1.33,1.77,1.77,0,0,1-1.32.43h-11a3.73,3.73,0,0,1-.94-.1,1.09,1.09,0,0,1-.54-.3.93.93,0,0,1-.23-.5,4.47,4.47,0,0,1,0-.67V22.48h-4v4.64A6.22,6.22,0,0,0,43,29a3.91,3.91,0,0,0,2.35,2.59,5.64,5.64,0,0,0,2.21.39H59.47a5.19,5.19,0,0,0,1.94-.36A3.88,3.88,0,0,0,63.11,30a3.74,3.74,0,0,0,1.78,1.55,6.47,6.47,0,0,0,2.2.36H83.46a6.27,6.27,0,0,0,4.59-1.46A5.49,5.49,0,0,0,89.51,26.43Zm-3.82-.69c0,.23,0,.51,0,.83a1.67,1.67,0,0,1-.18.74c-.67-.35-1.21-.67-1.62-.94a4.88,4.88,0,0,1-.92-.75,1.78,1.78,0,0,1-.41-.65,2.05,2.05,0,0,1-.1-.61,1.92,1.92,0,0,1,.32-1,1.26,1.26,0,0,1,1.16-.5,1.79,1.79,0,0,1,.88.19,1.4,1.4,0,0,1,.54.48,2,2,0,0,1,.29.71,4.6,4.6,0,0,1,.08.84Z"/><rect class="cls-2" x="81.92" y="12.45" width="4.14" height="3.79"/><polygon class="cls-2" points="0 63.12 4.92 63.12 4.92 54.94 12.1 54.94 12.1 51.14 4.92 51.14 4.92 45.81 13.57 45.81 13.57 42.05 0 42.05 0 63.12"/><path class="cls-2" d="M26.65,49.51a5.6,5.6,0,0,0-1.88-1.22,6.64,6.64,0,0,0-2.45-.44,10.91,10.91,0,0,0-3.57.57,8.41,8.41,0,0,0-3,1.75l.81,1.44a1.4,1.4,0,0,0,1.29.76,2.11,2.11,0,0,0,.91-.18c.25-.11.5-.24.77-.39a6.06,6.06,0,0,1,.91-.39,4.27,4.27,0,0,1,1.3-.17,2,2,0,0,1,1.55.59,2.82,2.82,0,0,1,.55,1.92v.62a19.19,19.19,0,0,0-4.27.52A8.69,8.69,0,0,0,16.9,56a4.06,4.06,0,0,0-1.41,1.54,3.67,3.67,0,0,0-.41,1.63,3.83,3.83,0,0,0,1.21,3.1,4.89,4.89,0,0,0,3.3,1,6,6,0,0,0,2.59-.49,9.58,9.58,0,0,0,2.18-1.45l.28.81a1.43,1.43,0,0,0,.56.75,2.23,2.23,0,0,0,1,.16h2.07V53.75a6.7,6.7,0,0,0-.41-2.37A5.29,5.29,0,0,0,26.65,49.51Zm-2.79,9.6a5.89,5.89,0,0,1-1.32,1,3.21,3.21,0,0,1-1.51.33c-1.12,0-1.69-.47-1.69-1.41a1.37,1.37,0,0,1,.21-.72,1.51,1.51,0,0,1,.72-.59,5.75,5.75,0,0,1,1.38-.44A12.91,12.91,0,0,1,23.86,57Z"/><path class="cls-2" d="M43.87,49.87a5.15,5.15,0,0,0-1.78-1.47,5.39,5.39,0,0,0-2.37-.52,5,5,0,0,0-2.29.51,7.46,7.46,0,0,0-1.88,1.34V41.46H31V63.12h3a1.33,1.33,0,0,0,.71-.16.85.85,0,0,0,.36-.62l.19-.76a5.84,5.84,0,0,0,1.52,1.27,4.28,4.28,0,0,0,2.21.49,5.68,5.68,0,0,0,2.58-.58,6,6,0,0,0,2-1.65,7.88,7.88,0,0,0,1.31-2.55,10.87,10.87,0,0,0,.47-3.34,11,11,0,0,0-.39-3A7,7,0,0,0,43.87,49.87ZM39.94,59a2.57,2.57,0,0,1-2.07,1,3.54,3.54,0,0,1-1.21-.21A2.76,2.76,0,0,1,35.55,59V52.65a6.15,6.15,0,0,1,1.19-1,2.6,2.6,0,0,1,1.41-.37,2.2,2.2,0,0,1,1.94.95,5.89,5.89,0,0,1,.66,3.22A5.92,5.92,0,0,1,39.94,59Z"/><polygon class="cls-2" points="50.44 42.96 49.25 42.96 49.25 63.12 60.32 63.12 60.32 62.12 50.44 62.12 50.44 42.96"/><path class="cls-2" d="M67.84,48.54a6.46,6.46,0,0,0-2.76.58,8.54,8.54,0,0,0-2.32,1.68l.19.34a.47.47,0,0,0,.41.22.91.91,0,0,0,.5-.29,7.6,7.6,0,0,1,.83-.68A5.78,5.78,0,0,1,66,49.72a4.92,4.92,0,0,1,1.82-.3,3.1,3.1,0,0,1,2.6,1.13,5.14,5.14,0,0,1,.88,3.2v1.59a26,26,0,0,0-4.16.41,11.84,11.84,0,0,0-2.87.91A4.41,4.41,0,0,0,62.57,58,3,3,0,0,0,62,59.67a3.89,3.89,0,0,0,.33,1.69,3.29,3.29,0,0,0,.86,1.13,3.42,3.42,0,0,0,1.22.65,5.16,5.16,0,0,0,1.41.2,7.87,7.87,0,0,0,1.67-.17,6.73,6.73,0,0,0,1.39-.5,6.52,6.52,0,0,0,1.22-.82c.39-.32.78-.68,1.18-1.08l.19,2a.39.39,0,0,0,.44.35h.4V53.75a6,6,0,0,0-1.09-3.81A4.1,4.1,0,0,0,67.84,48.54ZM71.26,60a10.24,10.24,0,0,1-2.18,1.81,5.5,5.5,0,0,1-3,.73A3.59,3.59,0,0,1,65,62.38a2.82,2.82,0,0,1-1-.51,2.37,2.37,0,0,1-.67-.9,3,3,0,0,1-.25-1.3,2.82,2.82,0,0,1,2-2.57A17.27,17.27,0,0,1,71.26,56Z"/><path class="cls-2" d="M87.54,50.38a4.87,4.87,0,0,0-4.06-1.84,5.77,5.77,0,0,0-3,.75,7.29,7.29,0,0,0-2.19,2.14V42.55H77.15V63.12h.66a.3.3,0,0,0,.34-.31L78.22,61a5.86,5.86,0,0,0,1.92,1.74,5.48,5.48,0,0,0,2.62.61,6.3,6.3,0,0,0,2.67-.55,5.52,5.52,0,0,0,2-1.57,7,7,0,0,0,1.2-2.44A11.64,11.64,0,0,0,89,55.56,8.15,8.15,0,0,0,87.54,50.38Zm-1,10.2a4.54,4.54,0,0,1-4,1.85,5.22,5.22,0,0,1-2.39-.53,5.05,5.05,0,0,1-1.9-1.85V52.37a7.15,7.15,0,0,1,2.08-2.18,5.05,5.05,0,0,1,2.81-.77A4.12,4.12,0,0,1,86.63,51a7.39,7.39,0,0,1,1.21,4.64A8.47,8.47,0,0,1,86.54,60.58Z"/></g></g></svg>