<svg id="Layer_1" data-name="Layer 1" xmlns="http://www.w3.org/2000/svg" viewBox="0 0 114.39 114.39"><defs><style>.cls-1{fill:none;stroke:#fff;stroke-miterlimit:10;}.cls-2{fill:#d63426;}</style></defs><rect class="cls-1" x="0.5" y="0.5" width="113.39" height="113.39"/><path class="cls-2" d="M31,92.23a7.6,7.6,0,0,0,7.61,7.61H64V84.4H31Z" transform="translate(0.19 0.19)"/><rect class="cls-2" x="31.15" y="66.71" width="42.1" height="15.44"/><path class="cls-2" d="M74.71,28.3a7.61,7.61,0,0,0,7.61-7.61v-.22a7.61,7.61,0,1,0-15.22,0v.22A7.61,7.61,0,0,0,74.71,28.3Z" transform="translate(0.19 0.19)"/><path class="cls-2" d="M75.48,30.74H64.68a6.85,6.85,0,0,0-6.85,6.85v8.59H82.32V37.59A6.85,6.85,0,0,0,75.48,30.74Z" transform="translate(0.19 0.19)"/><polygon class="cls-2" points="31.15 48.82 31.15 64.26 48.97 64.26 82.51 64.26 82.51 48.82 48.97 48.82 31.15 48.82"/></svg>