<svg id="Layer_1" data-name="Layer 1" xmlns="http://www.w3.org/2000/svg" viewBox="0 0 114.39 114.39"><defs><style>.cls-1{fill:none;stroke:#fff;stroke-miterlimit:10;}.cls-2{fill:#23a52d;}</style></defs><rect class="cls-1" x="0.5" y="0.5" width="113.39" height="113.39"/><rect class="cls-2" x="54.73" y="67.63" width="15.65" height="33.09"/><path class="cls-2" d="M32,75.11a7.68,7.68,0,0,0,7.68,7.68H52.78V67.44H32Z" transform="translate(0.19 0.19)"/><path class="cls-2" d="M62.51,49.44H50.77a7.66,7.66,0,0,0-7.67,7.67v7.68H70.18V57.11A7.67,7.67,0,0,0,62.51,49.44Z" transform="translate(0.19 0.19)"/><rect class="cls-2" x="49.1" y="13.7" width="15.47" height="15.47" rx="7.73"/><path class="cls-2" d="M32,31.5V46.85H73.61a7.66,7.66,0,0,0,7.67-7.67V31.5Z" transform="translate(0.19 0.19)"/></svg>